Coordinates
version=1
nRows=32
nColumns=22
inDegrees=yes

Units are S.I. units (second, meters, Newtons, ...)
If the header above contains a line with 'inDegrees', this indicates whether rotational values are in degrees (yes) or radians (no).

endheader
time	pelvis_tilt	pelvis_list	pelvis_rotation	pelvis_tx	pelvis_ty	pelvis_tz	hip_flexion_r	hip_adduction_r	hip_rotation_r	knee_angle_r	ankle_angle_r	subtalar_angle_r	hip_flexion_l	hip_adduction_l	hip_rotation_l	knee_angle_l	ankle_angle_l	subtalar_angle_l	lumbar_extension	lumbar_bending	lumbar_rotation
      0.01000000	      3.75083794	      3.83534439	    166.41318621	      0.11272226	      1.02023075	      0.90238371	      8.28855101	      4.40961811	      4.11534139	    -14.49847517	      6.44258387	      0.19745986	      2.17060516	     -8.85464952	    -23.41176617	     -9.10068701	      9.16721715	      2.85246127	     -1.96771601	      1.31065600	     -5.46035933
      0.02000000	      3.76835861	      3.84697588	    166.40585425	      0.11250233	      1.02020156	      0.90209108	      8.28080572	      4.44184090	      4.12573526	    -14.48969867	      6.45383400	      0.16666683	      2.15847741	     -8.88774477	    -23.41731079	     -9.08748380	      9.17557796	      2.92619495	     -1.93975916	      1.35314983	     -5.43809419
      0.03000000	      3.77675020	      3.85432499	    166.40525379	      0.11223071	      1.02017846	      0.90176471	      8.26247539	      4.46738169	      4.12003990	    -14.48278544	      6.47263687	      0.13445699	      2.13659848	     -8.91704541	    -23.42745887	     -9.07748364	      9.18978173	      3.02112239	     -1.91844324	      1.39604313	     -5.42513830
      0.04000000	      3.77981867	      3.85561354	    166.41287567	      0.11192196	      1.02015751	      0.90140517	      8.23274380	      4.48595009	      4.10839464	    -14.46615202	      6.48327649	      0.09977526	      2.11346338	     -8.94210705	    -23.43044094	     -9.07533424	      9.21208166	      3.14755495	     -1.89974450	      1.43383695	     -5.41568408
      0.05000000	      3.78636753	      3.85815793	    166.42199223	      0.11158951	      1.02012302	      0.90101634	      8.21334642	      4.50858752	      4.09801561	    -14.46797048	      6.52498510	      0.08156527	      2.08714874	     -8.96821354	    -23.42486337	     -9.06229462	      9.21287235	      3.19939889	     -1.87648885	      1.48006417	     -5.41675605
      0.06000000	      3.78762870	      3.86285838	    166.44300281	      0.11123179	      1.02009167	      0.90061084	      8.18420290	      4.53242759	      4.07960644	    -14.46685995	      6.56507387	      0.05705433	      2.05968243	     -8.99778935	    -23.41286423	     -9.05681072	      9.22563418	      3.28084873	     -1.86014100	      1.52790400	     -5.42774778
      0.07000000	      3.78663823	      3.86286617	    166.46817448	      0.11085638	      1.02005756	      0.90018591	      8.15444462	      4.55158174	      4.05906779	    -14.46912264	      6.60704081	      0.03121872	      2.03132640	     -9.02260513	    -23.39742205	     -9.05169186	      9.23615324	      3.36344313	     -1.84454998	      1.57033043	     -5.44134189
      0.08000000	      3.78459838	      3.85899556	    166.49611488	      0.11047289	      1.02002036	      0.89973454	      8.12699101	      4.56836086	      4.03942189	    -14.47819445	      6.65100465	      0.00788951	      2.00513374	     -9.04454899	    -23.37882200	     -9.05064598	      9.24414081	      3.43179218	     -1.82952639	      1.60544580	     -5.45542943
      0.09000000	      3.78704775	      3.85124985	    166.52319631	      0.11008131	      1.01997433	      0.89925454	      8.10925860	      4.58465295	      4.03108300	    -14.49790811	      6.69262010	     -0.00523482	      1.98126433	     -9.06305036	    -23.36907169	     -9.04160590	      9.24519939	      3.46072671	     -1.80791445	      1.63512205	     -5.46954624
      0.10000000	      3.77854949	      3.84230521	    166.57827536	      0.10968853	      1.01993844	      0.89881112	      8.08142693	      4.59195624	      3.98828584	    -14.51944318	      6.74159198	     -0.03074877	      1.96731989	     -9.08064744	    -23.31865575	     -9.06213142	      9.26423598	      3.56416570	     -1.80181311	      1.66184291	     -5.49767945
      0.11000000	      3.77753139	      3.83360768	    166.61378704	      0.10931814	      1.01989740	      0.89829880	      8.06937903	      4.60845629	      3.98953859	    -14.55703054	      6.79286851	     -0.03908020	      1.95701459	     -9.10372555	    -23.29142804	     -9.08083933	      9.25343605	      3.58518373	     -1.78944559	      1.68515937	     -5.50181170
      0.12000000	      3.78560774	      3.81868675	    166.68322762	      0.10890312	      1.01984088	      0.89782575	      8.06326506	      4.61249769	      3.94018308	    -14.58989847	      6.86197679	     -0.03556923	      1.96699363	     -9.12068232	    -23.22983306	     -9.10376080	      9.26739364	      3.63899364	     -1.75738788	      1.70310503	     -5.54114927
      0.13000000	      3.80011911	      3.80182869	    166.76058771	      0.10851801	      1.01978673	      0.89735724	      8.06859645	      4.61531953	      3.90167318	    -14.62883591	      6.92086134	     -0.01470345	      1.99826889	     -9.14098285	    -23.15682577	     -9.14560217	      9.26545951	      3.68558498	     -1.72282566	      1.72031356	     -5.57570753
      0.14000000	      3.82281455	      3.78206600	    166.84920010	      0.10812472	      1.01973085	      0.89688873	      8.08091921	      4.61428864	      3.85270722	    -14.66464668	      6.97973226	      0.02172733	      2.04844798	     -9.16339282	    -23.06882729	     -9.20252313	      9.26564619	      3.72647360	     -1.67460996	      1.73336938	     -5.62332729
      0.15000000	      3.85581500	      3.75942497	    166.95187410	      0.10773701	      1.01967443	      0.89644684	      8.10016618	      4.60844259	      3.79383573	    -14.69134432	      7.03290108	      0.07280958	      2.12421581	     -9.18761254	    -22.96470685	     -9.27723500	      9.26555783	      3.76671037	     -1.61347234	      1.74705953	     -5.67684083
      0.16000000	      3.89269162	      3.73593774	    167.06257547	      0.10735201	      1.01962581	      0.89601141	      8.11657815	      4.60120876	      3.73600160	    -14.70483868	      7.08377359	      0.12591118	      2.21759802	     -9.21614334	    -22.85123960	     -9.37366993	      9.26566247	      3.80529911	     -1.54546630	      1.75900197	     -5.73799689
      0.17000000	      3.94848668	      3.71060311	    167.18421340	      0.10695862	      1.01956420	      0.89561406	      8.14713336	      4.59082364	      3.64622271	    -14.70546791	      7.12551873	      0.19602619	      2.34505098	     -9.24833717	    -22.71231929	     -9.49140251	      9.27794047	      3.85415966	     -1.45207150	      1.77590280	     -5.79260107
      0.18000000	      3.99899988	      3.68649033	    167.31252017	      0.10657319	      1.01952261	      0.89523502	      8.16062936	      4.58007462	      3.57718165	    -14.68573273	      7.16716752	      0.25252066	      2.48528333	     -9.28620900	    -22.57107261	     -9.64030139	      9.28958339	      3.90153257	     -1.36555348	      1.79283616	     -5.85934584
      0.19000000	      4.05312593	      3.66386035	    167.44891584	      0.10618399	      1.01948737	      0.89488356	      8.16708976	      4.56934002	      3.50401250	    -14.64629291	      7.19945026	      0.30412092	      2.64748792	     -9.33078862	    -22.41598047	     -9.82119661	      9.30868925	      3.95191760	     -1.27464299	      1.81227003	     -5.92813056
      0.20000000	      4.10469674	      3.64360290	    167.59100608	      0.10578906	      1.01946545	      0.89456827	      8.15655246	      4.55859986	      3.43981171	    -14.58232868	      7.22587780	      0.34725776	      2.82623779	     -9.38061723	    -22.25590368	    -10.03596498	      9.33398082	      3.99985867	     -1.18853707	      1.83540227	     -5.99729921
      0.21000000	      4.15925672	      3.62825552	    167.73866619	      0.10539484	      1.01944761	      0.89428153	      8.13975097	      4.55145995	      3.37078700	    -14.50260663	      7.24329671	      0.38974553	      3.02923522	     -9.44139514	    -22.08203290	    -10.29075224	      9.36841886	      4.04802310	     -1.10240168	      1.86385938	     -6.06509839
      0.22000000	      4.21308949	      3.61978388	    167.89099761	      0.10499216	      1.01943458	      0.89402330	      8.10841069	      4.54921665	      3.29984457	    -14.40039919	      7.25669063	      0.42978546	      3.25094047	     -9.51327626	    -21.89840249	    -10.58343306	      9.41357365	      4.08964512	     -1.02016185	      1.89853834	     -6.12913131
      0.23000000	      4.26672704	      3.61915748	    168.04836290	      0.10459229	      1.01942214	      0.89379893	      8.06749363	      4.55302956	      3.22672812	    -14.28380308	      7.26470311	      0.47013941	      3.49526130	     -9.59732221	    -21.70361059	    -10.91865382	      9.46751793	      4.12164309	     -0.94458770	      1.94028210	     -6.18860718
      0.24000000	      4.31836209	      3.62694035	    168.20613027	      0.10419387	      1.01940667	      0.89360835	      8.01606554	      4.56300106	      3.15351128	    -14.15392761	      7.27055709	      0.51093101	      3.75803955	     -9.69252723	    -21.49921472	    -11.29319694	      9.52945445	      4.13798119	     -0.87649449	      1.99062296	     -6.24092555
      0.25000000	      4.36893764	      3.64468593	    168.36304910	      0.10378894	      1.01938273	      0.89345406	      7.95568524	      4.58080987	      3.08045034	    -14.01351847	      7.27641634	      0.55345640	      4.03701600	     -9.79882612	    -21.28545516	    -11.70203146	      9.59915164	      4.13445527	     -0.81450549	      2.05041500	     -6.28350928
      0.26000000	      4.42629428	      3.66857304	    168.51403080	      0.10340920	      1.01933322	      0.89333662	      7.91101840	      4.60538998	      3.00566450	    -13.88819202	      7.27455029	      0.60706505	      4.34217073	     -9.91285750	    -21.05745965	    -12.14572558	      9.66578110	      4.10721514	     -0.75399576	      2.11656966	     -6.31053972
      0.27000000	      4.46677980	      3.70552174	    168.65908061	      0.10295739	      1.01929306	      0.89324958	      7.81952690	      4.63670337	      2.94414454	    -13.71986038	      7.30275202	      0.65136560	      4.62287109	    -10.03199708	    -20.84146174	    -12.58826719	      9.75502898	      4.06021115	     -0.70930403	      2.19313227	     -6.32049532
      0.28000000	      4.51114375	      3.75011321	    168.79621290	      0.10250772	      1.01922675	      0.89320263	      7.73867226	      4.67455094	      2.87922683	    -13.56611574	      7.32861538	      0.70748772	      4.91144504	    -10.15549579	    -20.61798085	    -13.04038514	      9.84329229	      3.99338865	     -0.66654114	      2.27738166	     -6.31512324
      0.29000000	      4.55664570	      3.80015525	    168.92349180	      0.10204697	      1.01913962	      0.89320564	      7.66286156	      4.71480733	      2.81294505	    -13.42232931	      7.36664298	      0.77658183	      5.19277376	    -10.27632479	    -20.39734583	    -13.48071730	      9.93722534	      3.90617429	     -0.62947133	      2.37013990	     -6.28707557
      0.30000000	      4.60847796	      3.85122206	    169.04035292	      0.10158180	      1.01902102	      0.89325005	      7.60615238	      4.75385413	      2.73780702	    -13.30199240	      7.40377735	      0.87886633	      5.46858811	    -10.39086660	    -20.17931193	    -13.90184779	     10.02495111	      3.78746864	     -0.58996972	      2.46405456	     -6.24278713
      0.31000000	      4.64643983	      3.90717045	    169.14811745	      0.10105568	      1.01890645	      0.89334519	      7.52153601	      4.79042800	      2.66816191	    -13.16499428	      7.47839043	      0.98288957	      5.69815507	    -10.49506027	    -19.98458323	    -14.27464499	     10.13115594	      3.66787062	     -0.56648000	      2.56370101	     -6.18047273
      0.32000000	      4.67192734	      3.96486310	    169.24389107	      0.10046926	      1.01879253	      0.89347153	      7.41793388	      4.82340005	      2.59941100	    -13.02488854	      7.58855907	      1.07438279	      5.87615329	    -10.58632778	    -19.81145113	    -14.58904153	     10.25641702	      3.56126652	     -0.55364158	      2.66197995	     -6.10034518
